<svg xmlns="http://www.w3.org/2000/svg" xmlns:xlink="http://www.w3.org/1999/xlink" viewBox="0 0 384.08 94.66"><defs><style>.cls-1{isolation:isolate;}.cls-2{mix-blend-mode:overlay;fill:url(#radial-gradient);}.cls-3,.cls-5{mix-blend-mode:soft-light;}.cls-3{fill:url(#radial-gradient-2);}.cls-4{fill:url(#radial-gradient-3);}.cls-5{fill:url(#radial-gradient-4);}</style><radialGradient id="radial-gradient" cx="105.36" cy="76.59" r="56.39" gradientUnits="userSpaceOnUse"><stop offset="0" stop-color="#fff"/><stop offset="0.21" stop-color="#d5d5d5"/><stop offset="0.68" stop-color="#6b6c6c"/><stop offset="1" stop-color="#202121"/></radialGradient><radialGradient id="radial-gradient-2" cx="276.27" cy="76.59" r="58.62" xlink:href="#radial-gradient"/><radialGradient id="radial-gradient-3" cx="247.8" cy="47.83" r="97.78" gradientUnits="userSpaceOnUse"><stop offset="0" stop-color="#ba2500"/><stop offset="0.23" stop-color="#b62400"/><stop offset="0.46" stop-color="#aa2002"/><stop offset="0.69" stop-color="#961a04"/><stop offset="0.91" stop-color="#791108"/><stop offset="1" stop-color="#6d0d09"/></radialGradient><radialGradient id="radial-gradient-4" cx="133.6" cy="37.66" r="98.15" xlink:href="#radial-gradient"/></defs><title>Asset 1</title><g class="cls-1"><g id="Layer_2" data-name="Layer 2"><g id="Objects"><path class="cls-2" d="M34.47,59.15H49.38q5.48,0,8.57,2.51a8.46,8.46,0,0,1,3.09,7,13.24,13.24,0,0,1-1,5.19,12.62,12.62,0,0,1-2.94,4.31A12.43,12.43,0,0,1,52.13,81a24.52,24.52,0,0,1-7.21.9H39L36.66,94h-9Zm7.74,6.51L40.3,75.39h5a7.11,7.11,0,0,0,4.85-1.49,5.52,5.52,0,0,0,1.68-4.34,3.57,3.57,0,0,0-1.2-2.9,5.27,5.27,0,0,0-3.46-1Zm34.92-6.51h9l-5.46,28H96.38L95.09,94H70.34Zm35.48,0h9L117.53,80c-.16.74-.27,1.41-.34,2a12.7,12.7,0,0,0-.1,1.52,4.4,4.4,0,0,0,1.22,3.41A5.18,5.18,0,0,0,122,88.06a6.59,6.59,0,0,0,5-1.84c1.16-1.22,2-3.28,2.59-6.19l4.06-20.88h9L138.55,80Q137,87.73,132.8,91.19t-12.12,3.47q-6.18,0-9.4-2.65c-2.15-1.76-3.22-4.33-3.22-7.69,0-.56,0-1.18.11-1.87s.21-1.5.38-2.42ZM183,60.25l-1.44,7.37a26.2,26.2,0,0,0-5.21-2,20.49,20.49,0,0,0-5-.64,10.83,10.83,0,0,0-5.24,1A3.23,3.23,0,0,0,164.25,69a2.24,2.24,0,0,0,.83,1.85,9.76,9.76,0,0,0,3.42,1.3l3.68.91A14.16,14.16,0,0,1,179,76.43a7.8,7.8,0,0,1,2.16,5.7,11.06,11.06,0,0,1-4.31,9.1c-2.86,2.28-6.72,3.43-11.55,3.43A36.67,36.67,0,0,1,152,92.16l1.42-7.58a28.58,28.58,0,0,0,6,2.68,20,20,0,0,0,5.78.89,9,9,0,0,0,5-1.26,3.73,3.73,0,0,0,1.93-3.22,2.46,2.46,0,0,0-.87-2,11.15,11.15,0,0,0-3.77-1.45l-3.67-.91a11.8,11.8,0,0,1-6-3.18,8,8,0,0,1-2-5.62A10.51,10.51,0,0,1,160,61.8q4.17-3.28,11.21-3.28A41.52,41.52,0,0,1,177,59,47.52,47.52,0,0,1,183,60.25Z"/><path class="cls-3" d="M222.59,92.35a44.62,44.62,0,0,1-6.18,1.73,29.89,29.89,0,0,1-5.62.58q-7,0-11.23-3.85a13.18,13.18,0,0,1-4.2-10.2,23.27,23.27,0,0,1,1.33-7.87A21.93,21.93,0,0,1,200.61,66,20.64,20.64,0,0,1,208,60.46a22.36,22.36,0,0,1,9.28-1.94,23.54,23.54,0,0,1,5.43.64,29.57,29.57,0,0,1,5.56,2l-1.45,7.21a16.49,16.49,0,0,0-4.5-2.5,14.57,14.57,0,0,0-4.86-.79,11.5,11.5,0,0,0-9,4.15,15.17,15.17,0,0,0-3.64,10.38,8.57,8.57,0,0,0,2.24,6.3,8.22,8.22,0,0,0,6.18,2.29,16.25,16.25,0,0,0,5-.85,34.24,34.24,0,0,0,5.94-2.67Zm37.23-4.71H245.91L242.46,94h-9.21l19.69-34.83H263.2L269.36,94h-8.54ZM249.3,81.31h9.35l-2.1-13.41Zm44.24-.51L291,94h-9l6.79-34.83H302q5.73,0,8.7,2.15a7.32,7.32,0,0,1,3,6.32,10.35,10.35,0,0,1-2.33,6.95,9.18,9.18,0,0,1-6.32,3.13,5.21,5.21,0,0,1,3,1.85,13.09,13.09,0,0,1,2.12,4.54l3,9.89h-8.93l-2.61-8.65a7.58,7.58,0,0,0-1.93-3.56,4.88,4.88,0,0,0-3.28-1Zm5-6.21a6.68,6.68,0,0,0,4.63-1.42A5.34,5.34,0,0,0,304.72,69a2.94,2.94,0,0,0-1.09-2.54,5.81,5.81,0,0,0-3.41-.8h-3.71l-1.78,8.93Zm58.67-14.34-1.45,7.37a25.89,25.89,0,0,0-5.2-2,20.49,20.49,0,0,0-5-.64,10.83,10.83,0,0,0-5.24,1A3.23,3.23,0,0,0,338.4,69a2.24,2.24,0,0,0,.83,1.85,9.76,9.76,0,0,0,3.42,1.3l3.68.91a14.16,14.16,0,0,1,6.78,3.37,7.8,7.8,0,0,1,2.16,5.7,11.06,11.06,0,0,1-4.31,9.1q-4.31,3.42-11.56,3.43a36.67,36.67,0,0,1-13.27-2.5l1.42-7.58a28.58,28.58,0,0,0,6,2.68,19.91,19.91,0,0,0,5.78.89,9,9,0,0,0,5-1.26,3.75,3.75,0,0,0,1.93-3.22,2.46,2.46,0,0,0-.87-2,11.14,11.14,0,0,0-3.78-1.45L338,79.31a11.76,11.76,0,0,1-6-3.18,8,8,0,0,1-2-5.62,10.51,10.51,0,0,1,4.16-8.71q4.17-3.28,11.21-3.28a41.63,41.63,0,0,1,5.8.43A47.52,47.52,0,0,1,357.18,60.25Z"/><path class="cls-4" d="M383.2,71.32l-.46-9-.41-9,.35.69a80.88,80.88,0,0,0-7.6-4c-2.59-1.26-5.23-2.42-7.89-3.5-5.35-2.13-10.76-4.06-16.27-5.65s-11.08-2.95-16.68-4-11.26-2-16.93-2.59q-4.26-.46-8.53-.75c-1.31-.1-2.9-.18-4.27-.25s-2.78-.1-4.2-.11c-5.66-.06-11.34.19-17,.63s-11.38,1.13-17.09,1.9S254.76,37.27,249,38.15s-11.5,1.81-17.3,2.63S220.1,42.36,214.24,43s-11.75,1-17.66,1.24-11.85.16-17.77-.16a158.57,158.57,0,0,1-17.67-1.94,149.9,149.9,0,0,1-17.31-3.9,139.81,139.81,0,0,1-16.62-6,138.68,138.68,0,0,1-15.69-7.9C117,26.45,122.46,28.38,128,30c2.77.81,5.57,1.56,8.36,2.27s5.61,1.31,8.44,1.82a169.51,169.51,0,0,0,17,2.4q8.57.72,17.15.7c5.72,0,11.44-.27,17.15-.72s11.42-1.08,17.13-1.82,11.41-1.64,17.13-2.55l17.21-2.81c5.76-.94,11.55-1.84,17.39-2.59,2.92-.37,5.85-.72,8.79-1s5.89-.53,8.85-.73,5.94-.31,8.92-.37,6,0,9,.12c1.49.06,3,.14,4.53.25s2.85.22,4.43.41c3,.32,5.9.71,8.84,1.17a175.09,175.09,0,0,1,17.43,3.65c2.87.75,5.71,1.6,8.54,2.49s5.61,1.91,8.37,3A139.65,139.65,0,0,1,368.81,43a96.39,96.39,0,0,1,14.9,9.59l.37.3,0,.4-.41,9Z"/><path class="cls-5" d="M8.2,75.32a31.12,31.12,0,0,1-3.69-5.95c-.51-1.05-1-2.13-1.41-3.23S2.3,63.93,2,62.8s-.62-2.28-.88-3.44S.62,57,.46,55.86c-.09-.59-.14-1.18-.21-1.77S.13,52.9.1,52.31C0,51.12,0,49.93,0,48.74s.05-2.39.16-3.58.23-2.38.38-3.56.35-2.37.6-3.54.49-2.34.81-3.5.66-2.3,1-3.43.81-2.26,1.2-3.39.91-2.21,1.36-3.32L7,21.17,8,19.23l2.25.87c1.07.41,2.4.83,3.64,1.18s2.55.69,3.85,1c2.59.56,5.21,1.05,7.86,1.4a105.22,105.22,0,0,0,16,.88q4-.08,8-.43c1.33-.1,2.67-.21,4-.38s2.66-.31,4-.5A136.2,136.2,0,0,0,73.23,20c2.59-.69,5.16-1.43,7.71-2.27,1.28-.39,2.54-.84,3.81-1.29l3.87-1.35c2.58-.92,5.16-1.83,7.83-2.7s5.3-1.73,8-2.54c5.33-1.58,10.7-3.09,16.14-4.34S131.46,3.14,137,2.28,148.09.79,153.68.42s11.2-.52,16.79-.36,11.18.52,16.72,1.16,11,1.52,16.5,2.52S214.55,6,219.92,7.34s10.69,2.81,16,4.42,10.53,3.24,15.74,5S262,20.4,267.2,22.32c-10.75-2.39-21.45-4.9-32.18-7.16-5.37-1.09-10.73-2.2-16.1-3.17s-10.76-1.8-16.15-2.55S192,8.15,186.59,7.78s-10.8-.55-16.19-.5-10.77.28-16.13.76-10.71,1.13-16,2c-2.67.41-5.31.95-8,1.45s-5.29,1.1-7.91,1.76c-5.27,1.22-10.5,2.63-15.7,4.16s-10.31,3.14-15.55,4.94L87.2,23.7c-1.33.44-2.67.87-4,1.25-2.69.81-5.41,1.53-8.15,2.19a143.49,143.49,0,0,1-16.62,3,117.68,117.68,0,0,1-16.89.82A110.89,110.89,0,0,1,24.66,29.3a84.58,84.58,0,0,1-8.28-1.87c-1.37-.38-2.73-.81-4.08-1.27s-2.65-.95-4.11-1.62l3.16-1.08-1.61,3c-.49,1-1,2-1.48,3s-.94,2-1.32,3.1-.83,2.09-1.17,3.16-.7,2.13-1,3.21-.58,2.17-.84,3.27-.47,2.2-.62,3.32-.3,2.23-.43,3.35-.17,2.25-.17,3.38,0,2.27,0,3.4S2.85,57.91,3,59s.31,2.26.52,3.38a48.11,48.11,0,0,0,1.79,6.63A33.67,33.67,0,0,0,8.2,75.32Z"/></g></g></g></svg>